PathFileType	4	(X/Y/Z)	RBDS010\RBDS010runT35.trc
DataRate	CameraRate	NumFrames	NumMarkers	Units	OrigDataRate	OrigDataStartFrame	OrigNumFrames
150.000000	150.000000	5	32	mm	150.000000	3375	4500
Frame#	Time	L.ASIS			L.Heel.Bottom			L.Heel.Lateral			L.Heel.Top			L.Iliac.Crest			L.MT5			L.PSIS			L.Shank.Bottom.Lateral			L.Shank.Bottom.Medial			L.Shank.Top.Lateral			L.Shank.Top.Medial			L.Thigh.Bottom.Lateral			L.Thigh.Bottom.Medial			L.Thigh.Top.Lateral			L.Thigh.Top.Medial			R.ASIS			R.ASY			R.Heel.Bottom			R.Heel.Lateral			R.Heel.Top			R.Iliac.Crest			R.MT1			R.MT5			R.PSIS			R.Shank.Bottom.Lateral			R.Shank.Bottom.Medial			R.Shank.Top.Lateral			R.Shank.Top.Medial			R.Thigh.Bottom.Lateral			R.Thigh.Bottom.Medial			R.Thigh.Top.Lateral			R.Thigh.Top.Medial			
		X1	Y1	Z1	X2	Y2	Z2	X3	Y3	Z3	X4	Y4	Z4	X5	Y5	Z5	X6	Y6	Z6	X7	Y7	Z7	X8	Y8	Z8	X9	Y9	Z9	X10	Y10	Z10	X11	Y11	Z11	X12	Y12	Z12	X13	Y13	Z13	X14	Y14	Z14	X15	Y15	Z15	X16	Y16	Z16	X17	Y17	Z17	X18	Y18	Z18	X19	Y19	Z19	X20	Y20	Z20	X21	Y21	Z21	X22	Y22	Z22	X23	Y23	Z23	X24	Y24	Z24	X25	Y25	Z25	X26	Y26	Z26	X27	Y27	Z27	X28	Y28	Z28	X29	Y29	Z29	X30	Y30	Z30	X31	Y31	Z31	X32	Y32	Z32	

3376	22.5	2346.824436621474	921.1079588201776	867.0822461067174	2233.392503412807	29.48225210617729	982.5208661557092	2261.981715007411	45.57886329904645	937.1527993618893	2246.060343305285	79.91992599632199	984.0872082779155	2299.444599535544	1004.0574605452	843.0585111441907	2424.843408655005	40.87682701339123	910.5607190953824	2186.83438201616	966.072863413683	959.4317786629579	2322.905278364398	149.622572394057	917.6452841725328	2287.044889868967	166.3205007372096	954.3932356763729	2333.580821809977	225.2429659868466	892.2605144038483	2299.270156958086	243.1741843264526	929.7284313139538	2379.570133463318	538.2731255421546	846.1096613490853	2332.524156708157	515.2048618582201	896.3787552906725	2314.895482988471	626.0279371931658	828.9923135056808	2270.867105184037	605.2328558254482	876.9173144587099	2373.3853433055	901.8520201479896	1092.487128663891	1887.265768998645	342.2901913674722	1058.565469132446	1849.059564581487	527.4747895195648	1051.270457764333	1864.063942155326	498.8464068949898	1096.559052620691	1896.169341005701	512.4189748007033	1054.252370540272	2325.159863379252	987.9807136983851	1141.852634723427	1835.736705431328	318.3185204879962	1003.219015423519	1830.831797239713	337.4845286257317	1116.241361963451	2201.904316504894	962.5088189030554	1057.591156149688	1985.876850121211	441.3218733240666	1103.711400546005	1988.379604715762	484.6885810359394	1075.999164778274	2070.163021660831	443.934508176091	1113.188252781462	2068.69987428491	488.9630145278825	1083.986856087934	2295.685336288164	518.2492664809077	1134.998316343279	2233.938883030487	514.343020204033	1094.574755530478	2275.420802652556	624.7273965469371	1151.684664077492	2215.653763281213	621.7707272260983	1116.952427191011	
3377	22.50666666666667	2345.209209129772	916.2762708259401	867.6987823318661	2209.619501027606	29.41360611295423	982.8521848025554	2238.245870545251	45.97960088379006	937.6030114205602	2222.270208159901	79.86793510925783	984.8812989921802	2298.257037689587	998.0835811432797	842.818841530542	2401.0018955761	41.70772377362805	911.1628764168311	2184.434181416637	962.283406469433	959.025836538207	2303.364351764531	149.4160387101333	918.4677906054433	2267.787323868246	167.8529344731475	954.8110288759589	2317.680351389427	224.3936204226536	892.8600177079841	2283.762310115274	244.0188003386275	929.9182214675924	2374.669122095785	534.0070713165876	846.2289034670208	2327.294614198393	511.3411386639017	896.3677314092204	2310.818455616228	622.3467793495449	828.8048028872295	2266.434401856286	601.8568278965485	876.5020912351953	2370.287336609663	897.447190798453	1093.648838968485	1906.08322847064	342.4013090728998	1058.80486813864	1865.184026746168	527.0162624872504	1053.66953143496	1881.677531204904	498.5151770867038	1098.544397193041	1912.552483768322	512.6179037885373	1055.447194180533	2319.55348487836	982.4857535849878	1142.657638679176	1853.521030335017	318.0056515118013	1004.765434971692	1851.408115957328	336.4539063322882	1117.841259289748	2198.489670282309	957.954199510363	1056.935223898292	2003.492280750981	440.5259115598226	1104.271584572775	2006.424599064583	484.1941012519326	1077.063660960389	2087.793615910617	442.1543733345729	1113.92536761595	2086.856246275349	487.466625402191	1085.021878936399	2307.889803657366	515.1388381595341	1136.126434109656	2246.37725471557	508.2407880617002	1095.960680608878	2282.877863465612	620.6432151398748	1152.561319911656	2223.217931005338	614.7404486768244	1118.078111008571	
3378	22.51333333333334	2343.622879884972	912.0873707664651	868.4608141862624	2186.050246466826	29.66401541898312	983.1256875007037	2214.64952698889	46.4090658739367	937.8934471517015	2198.65629440121	80.10525081797442	985.296170523826	2297.004160572269	992.8837799759361	842.5418743714775	2377.239244656686	42.33817308841028	911.4917034173415	2182.194455835982	959.3270482884261	958.6161076611817	2283.448365895581	149.5697156437155	918.7533011198303	2248.39345008209	169.5805511448839	954.8770729997319	2301.131342730931	223.7757214290513	893.1015750986161	2267.783603493162	244.9289026194551	929.9082052697495	2368.513363453872	529.9912478326805	846.1976054556279	2320.725346325861	507.8528645191975	896.1650484074897	2305.806795572702	619.1710344142942	828.5873441673358	2261.025654292052	599.1009915126015	876.0535540591276	2367.094307205667	893.6305573030568	1094.991630515254	1925.628552026728	341.2056498105027	1058.863404664431	1880.983629651617	524.9552707085784	1055.998456082868	1899.107914610371	496.6359887067741	1100.364838163307	1928.645969052837	511.4673956622859	1056.526467093799	2313.546503305066	977.6113568906346	1143.512010523904	1872.243754709721	316.1176155733703	1006.093094003323	1872.71227998939	333.780949829243	1119.134300312798	2195.159481188119	954.1903310027768	1056.288756075793	2021.202668472033	439.1094109431422	1104.785532082343	2024.239493099869	483.074460672465	1078.071902360248	2105.485259495292	440.4072568298443	1114.591286660288	2104.729532539712	485.9764513644697	1085.996920301211	2320.339234654723	513.4966563684567	1137.301989018542	2259.251976726093	503.5459492394377	1097.309285170262	2290.450713422012	617.7518556975448	1153.462716871372	2231.092519162077	608.810509644486	1119.152161060924	
3379	22.52	2342.086722586589	908.6372338955372	869.2883360994745	2162.658261047817	30.17093264995858	983.3293089936534	2191.182923460367	46.83268032915135	938.0251311165398	2175.227964652209	80.57498275426191	985.3656953767094	2295.661956885194	988.6240362917192	842.2501925276667	2353.574284464678	42.70951285928528	911.5867228519081	2180.153634737648	957.2043414878391	958.2444714262939	2263.186058448205	149.9838480605825	918.5378250189967	2228.837652271139	171.387716912425	954.5974441348732	2283.954900246983	223.3282127366047	892.9881488490023	2251.30129768376	245.8350270181818	929.672987096212	2361.117638456154	526.2669434832169	846.0251550649291	2312.810702984258	504.7888897541516	895.7577620208315	2299.894050300359	616.5324722792482	828.3416494081384	2254.665003339265	597.011719362318	875.5673184666	2363.926589255996	890.463454629245	1096.414385043991	1945.741710414946	338.7461265624506	1058.742894857743	1896.340229431619	521.2719785762374	1058.215732530179	1916.19455157358	493.2064081476814	1101.989532021117	1944.313535889218	508.9468230576142	1057.496295666802	2307.481885116431	973.4864741402894	1144.374427343186	1891.793488604339	312.6958362330415	1007.149197134989	1894.540255076294	329.5470908568887	1120.087563326755	2192.02470990275	951.2695164323453	1055.707356324465	2038.857615135841	437.1001141756307	1105.258427596947	2041.655792960419	481.3531744224763	1079.019185258803	2123.094737982966	438.7446891423717	1115.176420247543	2122.153396587874	484.5431534467892	1086.910356709748	2332.925887173446	513.3635221553789	1138.489123417305	2272.47459660876	500.3430954112695	1098.556040792245	2298.075590231326	616.0818352350544	1154.363435068509	2239.218757803869	604.0513335553364	1120.13065834815	
3380	22.52666666666667	2340.6227399953	905.983322594527	870.1024882276391	2139.386561256361	30.89745738926276	983.4622250386615	2167.806553794898	47.25567979551734	938.0145145738111	2151.958547381636	81.24541763709566	985.1482651466656	2294.242164186271	985.4176247246928	841.9689138373521	2329.988112916654	42.81619114605703	911.4976846928849	2178.338461189998	955.8812000801722	957.9365924237879	2242.587514321137	150.5888673159835	917.9021819730129	2209.070282273527	173.2012121783082	954.0172114968365	2266.160286253009	223.0217447601911	892.5579128315505	2234.272851918645	246.709606044008	929.2205175953443	2352.529812648784	522.8787598445535	845.7269384396442	2303.587705604894	502.2043203701543	895.1477481560335	2293.143426421421	614.453018799942	828.0688784254263	2247.408836572996	595.627984931858	875.040849748739	2360.90532187844	887.9955476831971	1097.80896367577	1966.288501644138	335.0909348279677	1058.447215136335	1911.179243587055	515.9587003929363	1060.283227846385	1932.823215023221	488.239724885033	1103.39782626213	1959.461756201018	505.0486649355818	1058.364090461364	2301.709595361956	970.2266420876126	1145.201762224804	1912.077782182064	307.8132887264614	1007.888371930809	1916.7300246988	323.8605458841336	1120.683679929748	2189.176953943606	949.2142919281915	1055.228671053638	2056.332942877932	434.5170454871476	1105.688394950354	2058.539116498031	479.0442134300582	1079.902689724608	2140.492189947998	437.1900685988964	1115.674441657765	2138.984737629316	483.18736227621	1087.767664889054	2345.520050717275	514.7329394285921	1139.650264199696	2285.923604438896	498.6765274890995	1099.644897682308	2305.679081206201	615.6272631132867	1155.237796346788	2247.518727835791	600.5080962604741	1120.974557348944	
